<?xml version="1.0" encoding="UTF-8"?>
<svg id="Layer_1" data-name="Layer 1" xmlns="http://www.w3.org/2000/svg" viewBox="0 0 512 512">
  <defs>
    <style>
      .cls-1 {
        fill: #d8dee9;
      }

      .cls-2 {
        fill: #beedf0;
      }

      .cls-3 {
        fill: #88c0d0;
      }

      .cls-4 {
        fill: #2e3440;
      }
    </style>
  </defs>
  <path class="cls-1" d="M452,512H60c-33.14,0-60-26.86-60-60V60C0,26.86,26.86,0,60,0H452c33.14,0,60,26.86,60,60V452c0,33.14-26.86,60-60,60Z"/>
  <g>
    <g>
      <path class="cls-3" d="M174.42,238.9c-6.28,9.38-12.22,19.01-16.81,29.62-8.19,18.95-10.54,41.07-6.28,61.89,6.22,30.4,25.44,54.23,50.27,68.82,7.38,4.34,15.14,7.87,23.11,10.6,60.94,20.95,192.28-23.33,113.71-226.89,0,0-11.56,82.23-45.75,100.93,0,0-.56-125.03-61.41-186.39,.96,.97-1.6,11.07-1.81,12.31-4.79,28.15-12.76,55.35-24.88,80.33"/>
      <path class="cls-2" d="M299.81,327.64s-4.86,30.47-18.39,37.52c0,0,.24-46.26-23.5-68.74,.37,.36-8.2,31.56-16.07,43.09-4.63,6.77-10.05,12.97-13.56,20.47-3.3,7.04-4.3,15.24-2.7,22.92,2.34,11.23,9.82,19.97,19.55,25.28,2.89,1.58,5.94,2.85,9.06,3.84,23.93,7.53,75.83-9.34,45.63-84.37h0Z"/>
    </g>
    <g>
      <path class="cls-4" d="M187.35,220.71c3.07,1.81,7.02,.79,8.82-2.28s.79-7.02-2.28-8.82c-3.07-1.81-7.02-.79-8.82,2.28-1.81,3.07-.79,7.02,2.28,8.82Z"/>
      <path class="cls-4" d="M344.46,180.61c-1.06-2.75-3.86-4.44-6.79-4.11-2.93,.34-5.27,2.61-5.68,5.54-2.71,19.22-13.51,67.62-33.34,88.85-.76-12.85-2.67-34.09-7.52-58.47-4.58-23.03-10.86-44.05-18.64-62.45-9.84-23.27-22.17-42.46-36.63-57.05-1.73-1.75-4.3-2.36-6.64-1.59-2.33,.77-4.03,2.8-4.38,5.23-.61,4.25-1.64,11.3-1.78,12.15-4.95,29.1-13.13,55.54-24.32,78.59-1.56,3.22-.22,7.1,3,8.66,3.22,1.56,7.1,.22,8.66-3,11.56-23.82,20.04-51.01,25.22-80.82,24.23,30.22,36.56,71.63,42.74,102.58,7.57,37.91,7.81,68.88,7.81,69.19,.02,4.82,5.36,7.97,9.59,5.66,15.7-8.59,28.75-29.19,38.78-61.23,2.34-7.47,4.23-14.67,5.72-21.02,12.65,38.4,17.85,72.5,15.48,101.61-2.35,28.78-12,52.15-28.67,69.46-4.94,5.12-10.33,9.51-16.02,13.23,6-13.83,7.46-34.89-5.22-66.39-1.09-2.72-3.97-4.39-6.87-4-2.81,.37-5.1,2.61-5.55,5.4-.85,5.36-3.2,14.65-6.69,22.1-2.11-16.49-7.99-41.53-24.35-57.01-3.61-3.42-9.77-1.49-10.8,3.36-.05,.22-4.83,22.52-13.03,37.29-1.64,2.95-3.88,6.3-6.25,9.84-3.77,5.64-7.67,11.47-10.05,17.03-4.58,10.72-4.9,21.36-.96,31.63,1.93,5.03,5,9.77,8.91,13.89-1.14-.33-2.27-.68-3.37-1.06-7.69-2.64-15.06-6.03-21.93-10.06-24.92-14.64-41.68-37.56-47.2-64.53-3.98-19.44-1.89-40.05,5.88-58.02,4.65-10.75,10.82-20.49,16.24-28.59,1.99-2.97,1.19-7-1.78-8.99-2.97-1.99-7-1.19-8.99,1.78-5.75,8.59-12.31,18.95-17.37,30.65-8.81,20.39-11.19,43.74-6.68,65.76,6.27,30.62,25.21,56.58,53.33,73.1,7.61,4.47,15.78,8.22,24.28,11.14,9.72,3.34,20.86,5.04,32.34,5.04,8.14,0,16.3-.84,24.27-2.52,22.33-4.69,42.11-15.45,57.19-31.11,18.81-19.52,29.66-45.56,32.26-77.4,2.98-36.52-5.16-80.05-24.2-129.37h0Zm-110.3,183.72c1.9-4.45,5.46-9.77,8.9-14.91,2.53-3.77,4.91-7.34,6.81-10.76,4.95-8.92,8.7-19.89,11.12-28.23,13.86,21.87,13.93,54.34,13.93,54.71-.02,4.79,5.22,8,9.47,5.78,7.36-3.83,12.45-12.37,15.86-20.8,4.64,19.92,2.24,35.52-7.19,45.72-5.63,6.09-13.26,9.52-20.71,10.79-4.17,.7-8.48,.81-12.66,.08-4.01-.7-7.91-2.26-11.47-4.2-6.92-3.77-12.33-9.7-14.84-16.26-2.73-7.11-2.47-14.27,.78-21.9h0Z"/>
    </g>
  </g>
</svg>